<?xml version="1.0" standalone="no"?>
<!DOCTYPE svg PUBLIC "-//W3C//DTD SVG 20010904//EN"
 "http://www.w3.org/TR/2001/REC-SVG-20010904/DTD/svg10.dtd">
<svg version="1.0" xmlns="http://www.w3.org/2000/svg"
 viewBox="0 0 50.000000 50.000000"
 preserveAspectRatio="xMidYMid meet">

<g transform="translate(0.000000,50.000000) scale(0.100000,-0.100000)">
<path d="M47 454 c-4 -4 -7 -67 -7 -141 0 -93 -5 -151 -16 -192 -27 -96 -39
-91 226 -91 259 0 252 -2 230 73 -7 23 -16 112 -19 197 l-6 155 -201 3 c-110
1 -203 -1 -207 -4z m393 -139 l0 -125 -190 0 -190 0 0 125 0 125 190 0 190 0
0 -125z m-347 -165 c-5 -19 0 -20 157 -20 159 0 162 0 157 21 -4 16 -1 20 15
17 14 -2 25 -16 34 -40 l13 -38 -219 0 c-171 0 -218 3 -215 13 21 59 26 67 44
67 14 0 18 -5 14 -20z m292 10 c4 -6 -43 -10 -135 -10 -92 0 -139 4 -135 10 8
13 262 13 270 0z m85 -100 c0 -6 -80 -10 -220 -10 -140 0 -220 4 -220 10 0 6
80 10 220 10 140 0 220 -4 220 -10z"/>
<path d="M205 110 c-4 -6 13 -10 45 -10 32 0 49 4 45 10 -3 6 -24 10 -45 10
-21 0 -42 -4 -45 -10z"/>
</g>
</svg>
