<?xml version="1.0" standalone="no"?>
<!DOCTYPE svg PUBLIC "-//W3C//DTD SVG 20010904//EN"
 "http://www.w3.org/TR/2001/REC-SVG-20010904/DTD/svg10.dtd">
<svg version="1.0" xmlns="http://www.w3.org/2000/svg"
 viewBox="0 0 50.000000 50.000000"
 preserveAspectRatio="xMidYMid meet">

<g transform="translate(0.000000,50.000000) scale(0.100000,-0.100000)">
<path d="M35 487 c-3 -7 -4 -94 -3 -192 l3 -180 83 -3 c52 -2 82 1 82 8 0 6
-30 10 -75 10 l-75 0 0 175 0 175 110 0 110 0 0 -40 c0 -22 5 -40 11 -40 6 0
9 19 7 48 l-3 47 -123 3 c-94 2 -124 0 -127 -11z"/>
<path d="M70 320 l0 -140 65 0 c37 0 65 4 65 10 0 6 -25 10 -55 10 l-55 0 0
120 0 120 70 0 c63 0 70 -2 70 -20 0 -11 5 -20 10 -20 6 0 10 14 10 30 l0 30
-90 0 -90 0 0 -140z"/>
<path d="M215 377 c-3 -7 -4 -94 -3 -192 l3 -180 125 0 125 0 0 190 0 190
-123 3 c-94 2 -124 0 -127 -11z m235 -182 l0 -175 -110 0 -110 0 0 175 0 175
110 0 110 0 0 -175z"/>
<path d="M250 210 l0 -140 90 0 90 0 0 140 0 140 -90 0 -90 0 0 -140z m160 0
l0 -120 -70 0 -70 0 0 120 0 120 70 0 70 0 0 -120z"/>
<path d="M330 45 c0 -8 5 -15 10 -15 6 0 10 7 10 15 0 8 -4 15 -10 15 -5 0
-10 -7 -10 -15z"/>
<path d="M150 155 c0 -8 5 -15 10 -15 6 0 10 7 10 15 0 8 -4 15 -10 15 -5 0
-10 -7 -10 -15z"/>
</g>
</svg>
